<svg width="200" height="200" viewBox="0 0 200 200" fill="none" xmlns="http://www.w3.org/2000/svg">
<g clip-path="url(#clip0_3_11)">
<path d="M85 43C87.981 42.6594 87.981 42.6594 91.7578 42.707C92.4209 42.7113 93.0839 42.7155 93.7671 42.7199C95.8868 42.7367 98.0056 42.7743 100.125 42.8125C101.561 42.8275 102.997 42.8412 104.434 42.8535C107.956 42.884 111.478 42.9409 115 43C118.329 50.7857 121.377 58.6144 124.152 66.6133C124.53 67.6906 124.907 68.768 125.295 69.878C126.099 72.1725 126.9 74.4676 127.7 76.7631C129.798 82.782 131.907 88.7972 134.016 94.8125C134.436 96.0136 134.857 97.2148 135.291 98.4523C139.781 111.257 144.37 124.025 148.986 136.784C149.261 137.547 149.536 138.309 149.82 139.094C150.329 140.503 150.839 141.912 151.351 143.319C153 147.888 153 147.888 153 149C146.73 149 140.46 149 134 149C129.545 136.625 129.545 136.625 125 124C108.5 124 92 124 75 124C72.03 132.25 69.06 140.5 66 149C59.73 149 53.46 149 47 149C49.8013 139.2 53.1954 129.616 56.5625 120C56.8818 119.086 57.2011 118.173 57.5301 117.232C62.8264 102.087 68.1914 86.9672 73.6064 71.8647C74.4094 69.6246 75.2111 67.3841 76.0115 65.1431C77.1349 62.0001 78.2639 58.8591 79.3945 55.7187C79.7304 54.777 80.0662 53.8352 80.4122 52.8649C80.7245 52.0013 81.0368 51.1378 81.3586 50.248C81.7638 49.1202 81.7638 49.1202 82.1771 47.9696C83 46 83 46 85 43Z" fill="#FAFAFA"/>
<path d="M97 58C98.98 58 100.96 58 103 58C105.425 64.7978 107.846 71.5972 110.263 78.3979C111.087 80.7128 111.911 83.0273 112.737 85.3413C113.921 88.6614 115.102 91.9829 116.281 95.3047C116.653 96.3443 117.025 97.3839 117.408 98.455C117.748 99.4159 118.089 100.377 118.439 101.367C118.741 102.215 119.043 103.063 119.355 103.937C120 106 120 106 120 108C106.8 108 93.6 108 80 108C81.8643 101.164 83.7356 94.5467 86.1016 87.9023C86.3835 87.1014 86.6654 86.3005 86.9559 85.4752C87.544 83.8068 88.1339 82.1391 88.7256 80.4719C89.6337 77.9131 90.536 75.3522 91.4375 72.791C92.0127 71.1613 92.5882 69.5318 93.1641 67.9023C93.4338 67.1378 93.7036 66.3733 93.9816 65.5857C95.8828 60.2345 95.8828 60.2345 97 58Z" fill="#040404"/>
<path d="M147 43C149.7 44.7999 151.542 46.0838 153 49C153.255 52.9087 153.233 55.7094 151 59C146.989 61.6743 143.713 61.8083 139 61C136.285 58.881 135.322 57.4137 134.559 54.0625C134.36 51.8354 134.424 50.1629 135 48C138.636 43.845 141.454 41.938 147 43Z" fill="#F8F8F8"/>
</g>
<defs>
<clipPath id="clip0_3_11">
<rect width="200" height="200" fill="white"/>
</clipPath>
</defs>
</svg>
