<?xml version="1.0" encoding="UTF-8"?>
<svg version="1.1" xmlns="http://www.w3.org/2000/svg" width="200" height="200">
<path d="M0 0 C1.34888732 0.00015905 2.69778075 0.00584927 4.04663086 0.01586914 C5.10991859 0.01799156 5.10991859 0.01799156 6.19468689 0.02015686 C8.46699173 0.02577096 10.73919936 0.03832576 13.01147461 0.05102539 C14.54858257 0.05603858 16.08569206 0.0606018 17.62280273 0.06469727 C21.39823103 0.07574497 25.17358632 0.09301898 28.94897461 0.11352539 C27.53347956 3.02296553 26.02892762 5.45314435 24.01147461 7.98852539 C23.38885742 8.77614258 22.76624023 9.56375977 22.12475586 10.37524414 C21.40674805 11.27887695 20.68874023 12.18250977 19.94897461 13.11352539 C18.65915293 14.7529201 17.3717033 16.39416212 16.08422852 18.03540039 C12.73099562 22.30938353 9.37148159 26.57841344 6.00756836 30.84399414 C1.24897374 36.88223779 -3.47737368 42.93291497 -8.05102539 49.11352539 C-2.60602539 49.60852539 -2.60602539 49.60852539 2.94897461 50.11352539 C2.94897461 54.07352539 2.94897461 58.03352539 2.94897461 62.11352539 C6.90897461 62.11352539 10.86897461 62.11352539 14.94897461 62.11352539 C14.94897461 70.03352539 14.94897461 77.95352539 14.94897461 86.11352539 C20.55897461 86.11352539 26.16897461 86.11352539 31.94897461 86.11352539 C31.94897461 93.70352539 31.94897461 101.29352539 31.94897461 109.11352539 C26.33897461 109.11352539 20.72897461 109.11352539 14.94897461 109.11352539 C14.94897461 119.34352539 14.94897461 129.57352539 14.94897461 140.11352539 C6.69897461 140.11352539 -1.55102539 140.11352539 -10.05102539 140.11352539 C-10.38102539 123.28352539 -10.71102539 106.45352539 -11.05102539 89.11352539 C-14.73258789 94.06352539 -14.73258789 94.06352539 -18.48852539 99.11352539 C-24.42954518 105.95434284 -29.66228408 109.48486431 -38.72499084 110.30554199 C-49.83972629 110.84911838 -60.98197016 110.13291982 -72.05102539 109.11352539 C-74.48044944 89.97980875 -74.48044944 89.97980875 -69.28540039 82.32446289 C-66.37342084 78.66687237 -63.15660121 75.31392101 -59.86352539 71.99926758 C-57.21265582 69.24127774 -54.94874022 66.2466227 -52.67602539 63.17602539 C-49.23058587 58.64933412 -45.72790908 54.18108994 -42.16040039 49.75024414 C-39.70490666 46.68087698 -37.28460557 43.58504561 -34.86352539 40.48852539 C-30.84485207 35.3506656 -26.74856992 30.28302093 -22.61352539 25.23852539 C-16.97783198 18.35589997 -11.61018686 11.29663019 -6.31665039 4.14868164 C-3.31180788 0.12322883 -3.31180788 0.12322883 0 0 Z M-11.05102539 51.11352539 C-11.9135807 52.13757065 -12.73332504 53.19770008 -13.53540039 54.26977539 C-14.05271729 54.95547607 -14.57003418 55.64117676 -15.10302734 56.34765625 C-15.6633667 57.09539307 -16.22370605 57.84312988 -16.80102539 58.61352539 C-22.06459584 65.58792288 -27.47765237 72.40999404 -33.0871582 79.10961914 C-36.02195395 82.20293042 -36.02195395 82.20293042 -37.05102539 86.11352539 C-28.14102539 86.11352539 -19.23102539 86.11352539 -10.05102539 86.11352539 C-10.05102539 82.15352539 -10.05102539 78.19352539 -10.05102539 74.11352539 C-6.09102539 74.11352539 -2.13102539 74.11352539 1.94897461 74.11352539 C1.94897461 70.48352539 1.94897461 66.85352539 1.94897461 63.11352539 C-2.01102539 63.11352539 -5.97102539 63.11352539 -10.05102539 63.11352539 C-10.05102539 59.15352539 -10.05102539 55.19352539 -10.05102539 51.11352539 C-10.38102539 51.11352539 -10.71102539 51.11352539 -11.05102539 51.11352539 Z " fill="#008DCD" transform="translate(120.051025390625,29.886474609375)"/>
</svg>
