<svg width="128" height="128" viewBox="0 0 128 128" fill="none" xmlns="http://www.w3.org/2000/svg">
<path d="M28.55 81.5L17.1 46.5H25.5L35.45 77.5H31.25L41.65 46.5H49.15L59.15 77.5H55.1L65.3 46.5H73.05L61.6 81.5H52.9L44.05 54.3H46.35L37.25 81.5H28.55ZM74.9613 81.5V54.6H82.7613V81.5H74.9613ZM78.8613 50.85C77.428 50.85 76.2613 50.4333 75.3613 49.6C74.4613 48.7667 74.0113 47.7333 74.0113 46.5C74.0113 45.2667 74.4613 44.2333 75.3613 43.4C76.2613 42.5667 77.428 42.15 78.8613 42.15C80.2947 42.15 81.4613 42.55 82.3613 43.35C83.2613 44.1167 83.7113 45.1167 83.7113 46.35C83.7113 47.65 83.2613 48.7333 82.3613 49.6C81.4947 50.4333 80.328 50.85 78.8613 50.85Z" fill="white"/>
<rect x="87" y="41.2782" width="11" height="11" rx="3" transform="rotate(-45 87 41.2782)" fill="white"/>
</svg>
